<svg xmlns="http://www.w3.org/2000/svg" xmlns:xlink="http://www.w3.org/1999/xlink" width="200" zoomAndPan="magnify" viewBox="0 0 150 149.999998" height="200" preserveAspectRatio="xMidYMid meet" version="1.0"><defs><clipPath id="d4d28a063e"><path d="M 20.066406 40 L 44 40 L 44 140.203125 L 20.066406 140.203125 Z M 20.066406 40 " clip-rule="nonzero"/></clipPath><clipPath id="dd72c8c1dc"><path d="M 108 25 L 129.566406 25 L 129.566406 84 L 108 84 Z M 108 25 " clip-rule="nonzero"/></clipPath><clipPath id="f8695404b7"><path d="M 104 9.703125 L 108 9.703125 L 108 46 L 104 46 Z M 104 9.703125 " clip-rule="nonzero"/></clipPath></defs><path fill="#d9d9d9" d="M 55.257812 27.796875 C 55.257812 28.566406 55.183594 29.332031 55.03125 30.085938 C 54.882812 30.839844 54.660156 31.574219 54.363281 32.285156 C 54.070312 32.996094 53.710938 33.671875 53.28125 34.3125 C 52.855469 34.953125 52.367188 35.546875 51.824219 36.089844 C 51.277344 36.632812 50.6875 37.121094 50.046875 37.546875 C 49.40625 37.976562 48.730469 38.335938 48.019531 38.632812 C 47.308594 38.925781 46.574219 39.148438 45.820312 39.300781 C 45.0625 39.449219 44.300781 39.523438 43.53125 39.523438 C 42.761719 39.523438 42 39.449219 41.242188 39.300781 C 40.488281 39.148438 39.753906 38.925781 39.042969 38.632812 C 38.332031 38.335938 37.65625 37.976562 37.015625 37.546875 C 36.375 37.121094 35.785156 36.632812 35.238281 36.089844 C 34.695312 35.546875 34.207031 34.953125 33.78125 34.3125 C 33.351562 33.671875 32.992188 32.996094 32.699219 32.285156 C 32.402344 31.574219 32.179688 30.839844 32.03125 30.085938 C 31.878906 29.332031 31.804688 28.566406 31.804688 27.796875 C 31.804688 27.027344 31.878906 26.265625 32.03125 25.511719 C 32.179688 24.753906 32.402344 24.023438 32.699219 23.3125 C 32.992188 22.597656 33.351562 21.921875 33.78125 21.285156 C 34.207031 20.644531 34.695312 20.050781 35.238281 19.507812 C 35.785156 18.960938 36.375 18.476562 37.015625 18.046875 C 37.65625 17.621094 38.332031 17.257812 39.042969 16.964844 C 39.753906 16.667969 40.488281 16.449219 41.242188 16.296875 C 42 16.148438 42.761719 16.070312 43.53125 16.070312 C 44.300781 16.070312 45.0625 16.148438 45.820312 16.296875 C 46.574219 16.449219 47.308594 16.667969 48.019531 16.964844 C 48.730469 17.257812 49.40625 17.621094 50.046875 18.046875 C 50.6875 18.476562 51.277344 18.960938 51.824219 19.507812 C 52.367188 20.050781 52.855469 20.644531 53.28125 21.285156 C 53.710938 21.921875 54.070312 22.597656 54.363281 23.3125 C 54.660156 24.023438 54.882812 24.753906 55.03125 25.511719 C 55.183594 26.265625 55.257812 27.027344 55.257812 27.796875 Z M 55.257812 27.796875 " fill-opacity="1" fill-rule="nonzero"/><g clip-path="url(#d4d28a063e)"><path fill="#d9d9d9" d="M 37.171875 72.003906 L 29.828125 53.300781 C 29.304688 51.964844 29.332031 50.507812 29.90625 49.191406 C 30.476562 47.878906 31.527344 46.867188 32.863281 46.339844 C 33.492188 46.09375 34.152344 45.96875 34.824219 45.96875 C 37.046875 45.96875 39.007812 47.308594 39.820312 49.375 L 42.316406 55.730469 C 42.492188 54.871094 42.660156 54.039062 42.816406 53.246094 C 44.3125 48.058594 42.355469 41.851562 37.90625 40.742188 C 33.457031 39.632812 27.007812 42.050781 24.382812 49.679688 C 20.835938 60.195312 20.074219 67.039062 21.421875 78.617188 C 22.382812 83.5625 24.777344 85.890625 27.558594 86.957031 L 29.925781 106.785156 L 29.75 133.738281 C 29.726562 137.335938 32.625 140.269531 36.222656 140.296875 C 36.238281 140.296875 36.25 140.296875 36.265625 140.296875 C 39.84375 140.296875 42.753906 137.40625 42.777344 133.824219 L 42.957031 106.460938 C 42.960938 106.1875 42.945312 105.914062 42.914062 105.644531 L 40.101562 82.132812 C 40.117188 81.484375 40.105469 80.769531 40.054688 79.964844 C 39.832031 78.296875 39.738281 76.578125 39.742188 74.835938 C 38.59375 74.257812 37.667969 73.269531 37.171875 72.003906 Z M 37.171875 72.003906 " fill-opacity="1" fill-rule="nonzero"/></g><path fill="#d9d9d9" d="M 115.601562 137.207031 L 94.683594 135.765625 L 92.886719 135.765625 L 92.886719 114.917969 L 92.257812 114.917969 L 92.257812 99.464844 L 91.632812 99.464844 L 91.632812 85.992188 L 94.683594 85.992188 L 115.601562 84.546875 L 115.601562 82.433594 L 60.867188 82.433594 L 60.867188 84.546875 L 81.785156 85.992188 L 84.835938 85.992188 L 84.835938 99.464844 L 84.210938 99.464844 L 84.210938 114.917969 L 83.582031 114.917969 L 83.582031 135.765625 L 81.785156 135.765625 L 60.867188 137.207031 L 60.867188 139.324219 L 115.601562 139.324219 Z M 115.601562 137.207031 " fill-opacity="1" fill-rule="nonzero"/><path fill="#d9d9d9" d="M 51.167969 87.085938 C 51.332031 87.222656 51.578125 87.203125 51.714844 87.035156 L 55.066406 82.996094 C 55.199219 82.832031 55.179688 82.585938 55.011719 82.449219 L 54.085938 81.679688 C 53.921875 81.542969 53.675781 81.566406 53.539062 81.730469 L 50.191406 85.773438 C 50.054688 85.9375 50.078125 86.183594 50.242188 86.320312 Z M 51.167969 87.085938 " fill-opacity="1" fill-rule="nonzero"/><path fill="#d9d9d9" d="M 63.472656 75.410156 L 63.472656 76.4375 L 80.339844 76.4375 L 80.339844 74.257812 L 68.550781 74.257812 C 67.636719 74.976562 66.484375 75.410156 65.234375 75.410156 Z M 63.472656 75.410156 " fill-opacity="1" fill-rule="nonzero"/><path fill="#d9d9d9" d="M 42.167969 74.214844 L 65.234375 74.210938 C 67.539062 74.210938 69.402344 72.347656 69.402344 70.042969 C 69.402344 67.742188 67.539062 65.875 65.234375 65.875 L 45.011719 65.875 L 38.707031 49.816406 C 37.863281 47.671875 35.441406 46.617188 33.300781 47.457031 C 31.15625 48.300781 30.101562 50.71875 30.945312 52.863281 L 38.289062 71.566406 C 38.914062 73.164062 40.453125 74.214844 42.167969 74.214844 Z M 42.167969 74.214844 " fill-opacity="1" fill-rule="nonzero"/><g clip-path="url(#dd72c8c1dc)"><path fill="#d9d9d9" d="M 115.890625 41.632812 L 120.203125 54.996094 L 119.414062 69.683594 C 119.414062 69.710938 119.414062 69.738281 119.414062 69.765625 L 119.414062 75.988281 L 117.671875 75.988281 L 117.671875 77.03125 L 122.570312 77.03125 L 122.570312 82.386719 L 117.671875 82.386719 L 117.671875 83.429688 L 123.613281 83.429688 L 123.613281 75.988281 L 122.539062 75.988281 L 122.539062 70.707031 L 129.777344 55.417969 C 129.875 55.207031 129.929688 54.980469 129.929688 54.75 L 129.929688 46.859375 C 129.929688 46.570312 129.847656 46.289062 129.699219 46.046875 L 117.804688 26.523438 C 117.523438 26.058594 117.015625 25.773438 116.472656 25.773438 L 112.828125 25.773438 L 112.828125 28.898438 L 115.59375 28.898438 L 126.800781 47.296875 L 126.800781 54.398438 L 122.925781 62.582031 L 123.339844 54.875 C 123.351562 54.683594 123.324219 54.492188 123.265625 54.3125 L 118.417969 39.277344 C 118.164062 38.492188 117.34375 38.039062 116.546875 38.242188 L 108.769531 40.21875 L 108.769531 43.445312 Z M 116.464844 28.277344 C 115.980469 28.277344 115.589844 27.882812 115.589844 27.402344 C 115.589844 26.917969 115.980469 26.527344 116.464844 26.527344 C 116.949219 26.527344 117.339844 26.917969 117.339844 27.402344 C 117.339844 27.882812 116.949219 28.277344 116.464844 28.277344 Z M 128.378906 46.34375 C 128.863281 46.34375 129.253906 46.734375 129.253906 47.21875 C 129.253906 47.703125 128.863281 48.09375 128.378906 48.09375 C 127.894531 48.09375 127.503906 47.703125 127.503906 47.21875 C 127.503906 46.734375 127.894531 46.34375 128.378906 46.34375 Z M 120.101562 70.691406 C 120.101562 70.210938 120.492188 69.816406 120.976562 69.816406 C 121.460938 69.816406 121.851562 70.210938 121.851562 70.691406 C 121.851562 71.175781 121.460938 71.566406 120.976562 71.566406 C 120.492188 71.566406 120.101562 71.175781 120.101562 70.691406 Z M 121.789062 54.054688 C 122.273438 54.054688 122.664062 54.449219 122.664062 54.929688 C 122.664062 55.414062 122.273438 55.804688 121.789062 55.804688 C 121.304688 55.804688 120.914062 55.414062 120.914062 54.929688 C 120.914062 54.449219 121.304688 54.054688 121.789062 54.054688 Z M 121.789062 54.054688 " fill-opacity="1" fill-rule="nonzero"/></g><path fill="#d9d9d9" d="M 54.871094 77.898438 L 121.597656 77.898438 L 121.597656 81.515625 L 54.871094 81.515625 Z M 54.871094 77.898438 " fill-opacity="1" fill-rule="nonzero"/><path fill="#d9d9d9" d="M 121.3125 70.691406 C 121.3125 70.507812 121.164062 70.355469 120.976562 70.355469 C 120.789062 70.355469 120.640625 70.507812 120.640625 70.691406 C 120.640625 70.878906 120.789062 71.03125 120.976562 71.03125 C 121.164062 71.03125 121.3125 70.878906 121.3125 70.691406 Z M 121.3125 70.691406 " fill-opacity="1" fill-rule="nonzero"/><path fill="#d9d9d9" d="M 128.714844 47.21875 C 128.714844 47.3125 128.683594 47.390625 128.617188 47.457031 C 128.550781 47.523438 128.472656 47.554688 128.378906 47.554688 C 128.285156 47.554688 128.207031 47.523438 128.140625 47.457031 C 128.074219 47.390625 128.042969 47.3125 128.042969 47.21875 C 128.042969 47.125 128.074219 47.046875 128.140625 46.980469 C 128.207031 46.914062 128.285156 46.882812 128.378906 46.882812 C 128.472656 46.882812 128.550781 46.914062 128.617188 46.980469 C 128.683594 47.046875 128.714844 47.125 128.714844 47.21875 Z M 128.714844 47.21875 " fill-opacity="1" fill-rule="nonzero"/><path fill="#d9d9d9" d="M 107.972656 34.050781 L 110.296875 34.050781 L 110.296875 31.289062 L 110.894531 31.289062 C 111.292969 31.289062 111.617188 30.964844 111.617188 30.566406 L 111.617188 28.109375 L 112.820312 28.109375 L 112.820312 26.648438 L 111.617188 26.648438 L 111.617188 24.191406 C 111.617188 23.792969 111.292969 23.46875 110.894531 23.46875 L 110.296875 23.46875 L 110.296875 20.710938 L 107.972656 20.710938 Z M 107.972656 34.050781 " fill-opacity="1" fill-rule="nonzero"/><g clip-path="url(#f8695404b7)"><path fill="#d9d9d9" d="M 104.019531 9.722656 L 107.203125 9.722656 L 107.203125 45.035156 L 104.019531 45.035156 Z M 104.019531 9.722656 " fill-opacity="1" fill-rule="nonzero"/></g><path fill="#d9d9d9" d="M 116.464844 27.0625 C 116.277344 27.0625 116.128906 27.214844 116.128906 27.402344 C 116.128906 27.585938 116.277344 27.738281 116.464844 27.738281 C 116.652344 27.738281 116.800781 27.585938 116.800781 27.402344 C 116.800781 27.214844 116.652344 27.0625 116.464844 27.0625 Z M 116.464844 27.0625 " fill-opacity="1" fill-rule="nonzero"/><path fill="#d9d9d9" d="M 92.285156 25.183594 L 95.472656 25.183594 L 95.472656 60.5 L 92.285156 60.5 Z M 92.285156 25.183594 " fill-opacity="1" fill-rule="nonzero"/><path fill="#d9d9d9" d="M 96.238281 36.171875 L 96.238281 49.511719 L 98.5625 49.511719 L 98.5625 46.75 L 99.160156 46.75 C 99.558594 46.75 99.882812 46.429688 99.882812 46.03125 L 99.882812 43.574219 L 100.675781 43.574219 L 100.675781 44.523438 L 102.457031 44.523438 L 102.457031 41.398438 L 100.675781 41.398438 L 100.675781 42.109375 L 99.882812 42.109375 L 99.882812 39.652344 C 99.882812 39.257812 99.558594 38.933594 99.160156 38.933594 L 98.5625 38.933594 L 98.5625 36.171875 Z M 96.238281 36.171875 " fill-opacity="1" fill-rule="nonzero"/><path fill="#d9d9d9" d="M 122.125 54.929688 C 122.125 55.023438 122.09375 55.101562 122.027344 55.167969 C 121.960938 55.234375 121.882812 55.269531 121.789062 55.269531 C 121.695312 55.269531 121.617188 55.234375 121.550781 55.167969 C 121.484375 55.101562 121.453125 55.023438 121.453125 54.929688 C 121.453125 54.835938 121.484375 54.757812 121.550781 54.691406 C 121.617188 54.625 121.695312 54.59375 121.789062 54.59375 C 121.882812 54.59375 121.960938 54.625 122.027344 54.691406 C 122.09375 54.757812 122.125 54.835938 122.125 54.929688 Z M 122.125 54.929688 " fill-opacity="1" fill-rule="nonzero"/></svg>