<svg xmlns="http://www.w3.org/2000/svg" xmlns:xlink="http://www.w3.org/1999/xlink" width="200" zoomAndPan="magnify" viewBox="0 0 150 149.999998" height="200" preserveAspectRatio="xMidYMid meet" version="1.0"><defs><clipPath id="31c634e2ba"><path d="M 50 13.574219 L 76 13.574219 L 76 34 L 50 34 Z M 50 13.574219 " clip-rule="nonzero"/></clipPath><clipPath id="93bb9e31c8"><path d="M 13.03125 32 L 136.78125 32 L 136.78125 136.574219 L 13.03125 136.574219 Z M 13.03125 32 " clip-rule="nonzero"/></clipPath></defs><path fill="#d9d9d9" d="M 55.480469 40.417969 C 61.101562 43.386719 68.0625 41.234375 71.03125 35.617188 C 71.277344 35.152344 71.484375 34.679688 71.660156 34.199219 L 51.496094 23.546875 C 51.199219 23.964844 50.925781 24.402344 50.679688 24.867188 C 47.710938 30.484375 49.863281 37.449219 55.480469 40.417969 Z M 55.480469 40.417969 " fill-opacity="1" fill-rule="nonzero"/><g clip-path="url(#31c634e2ba)"><path fill="#d9d9d9" d="M 51.617188 22.339844 L 51.800781 22.433594 L 72.722656 33.488281 L 72.902344 33.582031 C 73.65625 33.980469 74.589844 33.691406 74.988281 32.9375 C 75.386719 32.183594 75.097656 31.25 74.34375 30.851562 L 74.15625 30.753906 C 75.902344 27.230469 75.730469 23.234375 74.015625 19.980469 L 73.574219 20.8125 C 73.261719 21.410156 72.523438 21.636719 71.925781 21.324219 C 71.328125 21.007812 71.101562 20.269531 71.417969 19.671875 L 72.453125 17.707031 C 71.785156 16.941406 71.011719 16.253906 70.132812 15.671875 L 68.761719 18.269531 C 68.445312 18.867188 67.707031 19.09375 67.109375 18.777344 C 66.515625 18.464844 66.285156 17.722656 66.601562 17.128906 L 67.972656 14.53125 C 66.996094 14.136719 65.992188 13.882812 64.984375 13.761719 L 63.945312 15.726562 C 63.628906 16.320312 62.890625 16.550781 62.292969 16.234375 C 61.699219 15.921875 61.472656 15.179688 61.785156 14.585938 L 62.226562 13.753906 C 58.570312 14.171875 55.171875 16.28125 53.25 19.707031 L 53.058594 19.609375 C 52.304688 19.210938 51.375 19.5 50.976562 20.253906 C 50.578125 21.007812 50.863281 21.941406 51.617188 22.339844 Z M 51.617188 22.339844 " fill-opacity="1" fill-rule="nonzero"/></g><g clip-path="url(#93bb9e31c8)"><path fill="#d9d9d9" d="M 70.484375 120.394531 L 61.28125 136.25 L 136.976562 136.25 L 132.371094 120.394531 L 120.609375 115.792969 L 112.9375 98.914062 L 96.570312 93.796875 L 95.242188 95.410156 C 91.726562 92.644531 87.875 89.605469 87.875 89.605469 L 83.011719 95.777344 L 80.328125 94.8125 L 79.578125 95.761719 L 72.078125 89.824219 C 72.757812 88.898438 73.046875 87.691406 72.765625 86.480469 L 68.351562 67.433594 L 66.484375 48.253906 C 66.617188 46.714844 65.839844 45.175781 64.390625 44.410156 L 63.945312 44.175781 C 63.015625 47.90625 62.007812 52.539062 61.6875 56.132812 C 61.515625 58.054688 60.761719 60.734375 59.757812 63.628906 L 60.234375 68.496094 C 60.25 68.671875 60.28125 68.847656 60.320312 69.023438 L 63.585938 83.101562 L 54.8125 76.160156 L 55.144531 75.058594 L 56.050781 72.019531 C 55.984375 71.996094 50.269531 70.28125 44.980469 68.378906 L 42.75 66.617188 L 44.25 62.835938 C 50.238281 65.148438 57.953125 67.464844 58.292969 67.566406 L 59.757812 62.667969 C 59.675781 62.644531 51.9375 60.320312 46.132812 58.078125 L 50.457031 47.171875 L 55.3125 41.640625 C 55.183594 41.582031 55.054688 41.523438 54.929688 41.457031 C 52.871094 40.367188 51.199219 38.765625 50.023438 36.824219 L 49.375 36.480469 L 49.03125 46.605469 L 44.707031 57.515625 C 38.945312 55.171875 31.714844 51.5625 31.636719 51.523438 L 29.382812 56.035156 L 29.375 56.027344 L 24.964844 52.535156 L 30.308594 40.769531 L 37.269531 41.824219 C 38.910156 39.308594 40.511719 36.539062 41.78125 34.234375 L 28.480469 32.214844 C 28.46875 32.210938 28.457031 32.210938 28.449219 32.210938 C 28.34375 32.195312 28.238281 32.183594 28.128906 32.179688 C 28.101562 32.175781 28.070312 32.171875 28.042969 32.171875 C 27.9375 32.167969 27.832031 32.167969 27.730469 32.171875 C 27.695312 32.171875 27.664062 32.171875 27.628906 32.175781 C 27.535156 32.179688 27.441406 32.191406 27.347656 32.203125 C 27.308594 32.207031 27.265625 32.210938 27.226562 32.21875 C 27.140625 32.230469 27.058594 32.25 26.976562 32.269531 C 26.929688 32.277344 26.882812 32.289062 26.835938 32.300781 C 26.753906 32.320312 26.675781 32.347656 26.59375 32.375 C 26.550781 32.386719 26.503906 32.402344 26.460938 32.417969 C 26.375 32.449219 26.289062 32.484375 26.207031 32.523438 C 26.171875 32.539062 26.136719 32.550781 26.101562 32.570312 C 26.007812 32.613281 25.917969 32.664062 25.828125 32.714844 C 25.804688 32.726562 25.78125 32.738281 25.757812 32.753906 C 25.664062 32.808594 25.570312 32.871094 25.480469 32.9375 C 25.464844 32.949219 25.449219 32.957031 25.433594 32.96875 C 25.34375 33.035156 25.261719 33.105469 25.179688 33.175781 C 25.160156 33.191406 25.144531 33.203125 25.128906 33.21875 C 25.054688 33.285156 24.988281 33.351562 24.917969 33.421875 C 24.894531 33.449219 24.867188 33.476562 24.84375 33.503906 C 24.789062 33.5625 24.738281 33.625 24.6875 33.6875 C 24.652344 33.730469 24.617188 33.773438 24.582031 33.816406 C 24.546875 33.867188 24.511719 33.921875 24.476562 33.972656 C 24.433594 34.035156 24.390625 34.097656 24.351562 34.164062 C 24.328125 34.207031 24.304688 34.25 24.28125 34.292969 C 24.238281 34.371094 24.195312 34.449219 24.15625 34.53125 C 24.152344 34.542969 24.144531 34.554688 24.140625 34.566406 L 17.96875 48.152344 L 13.03125 54.417969 L 15.84375 56.632812 L 17.496094 54.539062 C 17.886719 55.039062 18.398438 55.453125 19.015625 55.734375 C 19.566406 55.984375 20.140625 56.101562 20.707031 56.101562 C 21.542969 56.101562 22.351562 55.839844 23.03125 55.367188 L 28.085938 59.367188 L 33.195312 63.410156 C 30.222656 62.015625 27.976562 60.898438 27.933594 60.875 L 26.515625 63.71875 L 25.648438 65.449219 C 25.675781 65.464844 25.757812 65.503906 25.878906 65.566406 C 27.195312 66.21875 33.679688 69.414062 39.121094 71.621094 L 37.125 76.648438 C 29.109375 73.394531 25.015625 70.414062 24.496094 70.023438 C 24.234375 71.285156 24.121094 72.71875 24.304688 73.875 L 25.75 98.917969 L 15.425781 125.585938 C 14.148438 128.878906 15.785156 132.582031 19.078125 133.855469 C 19.835938 134.152344 20.617188 134.289062 21.386719 134.289062 C 23.949219 134.289062 26.367188 132.738281 27.347656 130.203125 L 38.175781 102.246094 C 38.503906 101.394531 38.648438 100.480469 38.59375 99.566406 L 37.648438 83.128906 L 49.402344 98.449219 L 40.1875 127.316406 C 39.113281 130.679688 40.96875 134.277344 44.332031 135.351562 C 44.980469 135.554688 45.632812 135.65625 46.277344 135.652344 C 48.988281 135.652344 51.5 133.921875 52.367188 131.203125 L 62.597656 99.152344 C 63.234375 97.15625 62.851562 94.976562 61.578125 93.316406 L 52.144531 81.019531 C 51.085938 80.890625 46.183594 80.171875 38.550781 77.21875 L 40.542969 72.1875 C 42.730469 73.03125 45.144531 73.875 47.347656 74.613281 L 53.21875 79.257812 L 64.828125 88.449219 C 65.300781 90.238281 66.894531 91.449219 68.675781 91.492188 L 77.464844 98.449219 L 76.714844 99.398438 L 78.28125 101.78125 L 73.421875 107.953125 C 73.421875 107.953125 78.316406 111.8125 82.105469 114.796875 L 79.695312 118.859375 Z M 29.65625 56.25 C 31.121094 56.976562 37.480469 60.101562 42.824219 62.269531 L 41.496094 65.621094 Z M 29.65625 56.25 " fill-opacity="1" fill-rule="nonzero"/></g></svg>