<svg xmlns="http://www.w3.org/2000/svg" xmlns:xlink="http://www.w3.org/1999/xlink" width="200" zoomAndPan="magnify" viewBox="0 0 150 149.999998" height="200" preserveAspectRatio="xMidYMid meet" version="1.0"><defs><clipPath id="e85102c637"><path d="M 0 19.3125 L 150 19.3125 L 150 131 L 0 131 Z M 0 19.3125 " clip-rule="nonzero"/></clipPath></defs><g clip-path="url(#e85102c637)"><path fill="#d9d9d9" d="M 143.167969 89.6875 C 143.335938 89.347656 143.484375 89 143.601562 88.648438 C 145.324219 83.480469 143.84375 78.316406 139.324219 73.714844 C 136.691406 71.035156 133.78125 69.308594 132.628906 68.675781 C 132.464844 68.101562 132.277344 67.539062 132.074219 66.980469 L 132.074219 44.898438 C 132.074219 39.847656 130.292969 34.957031 127.058594 31.09375 C 126.269531 28.28125 124.789062 25.769531 122.585938 23.8125 C 118.941406 20.574219 113.933594 19.328125 108.488281 20.3125 C 105.734375 20.8125 103.03125 21.859375 100.511719 23.367188 L 39.457031 23.367188 C 27.585938 23.367188 17.925781 33.027344 17.925781 44.898438 L 17.925781 56.414062 C 15.554688 61.679688 13.53125 67.5 11.90625 72.851562 C 10.902344 76.160156 11.84375 79.65625 14.097656 82.042969 L 2.519531 94.21875 C 0.894531 95.929688 0 98.167969 0 100.523438 L 0 114.421875 C 0 119.117188 3.585938 123.019531 8.160156 123.515625 C 8.597656 124.902344 9.324219 126.195312 10.316406 127.296875 C 12.25 129.433594 15.007812 130.660156 17.890625 130.660156 C 22.394531 130.660156 26.277344 127.722656 27.609375 123.570312 L 140.851562 123.570312 C 145.894531 123.570312 150 119.464844 150 114.421875 L 150 100.523438 C 150 98.167969 149.105469 95.929688 147.480469 94.21875 Z M 141.339844 87.894531 C 140.492188 90.4375 137.710938 92.675781 133.292969 94.363281 C 122.109375 98.636719 103.398438 98.363281 98.878906 95.777344 C 94.863281 93.484375 94.867188 89.878906 95.234375 87.921875 C 95.96875 88.269531 96.761719 88.507812 97.605469 88.617188 C 101.089844 89.070312 105.390625 89.464844 109.78125 89.464844 C 119.253906 89.464844 129.140625 87.628906 132.164062 80.589844 C 133.410156 77.6875 133.671875 74.734375 133.300781 71.875 C 137.042969 74.359375 143.921875 80.152344 141.339844 87.894531 Z M 129.691406 61.960938 C 126.925781 57.183594 123.378906 53.457031 121.769531 51.882812 C 125.640625 47.15625 127.648438 41.613281 127.734375 36.46875 C 129.011719 39.074219 129.691406 41.957031 129.691406 44.898438 Z M 108.914062 22.65625 C 109.984375 22.464844 111.035156 22.367188 112.050781 22.367188 C 115.515625 22.367188 118.621094 23.472656 121.007812 25.59375 C 127.46875 31.335938 126.675781 42.8125 119.238281 51.179688 C 111.800781 59.546875 100.496094 61.683594 94.035156 55.941406 C 87.574219 50.203125 88.367188 38.722656 95.800781 30.355469 C 99.441406 26.261719 104.097656 23.527344 108.914062 22.65625 Z M 20.308594 44.898438 C 20.308594 34.339844 28.898438 25.75 39.457031 25.75 L 97.152344 25.75 C 96.050781 26.664062 95 27.671875 94.023438 28.773438 C 90.984375 32.195312 88.964844 36.105469 87.988281 40.011719 C 84.457031 38.5625 80.703125 37.828125 76.804688 37.828125 C 76.097656 37.828125 75.390625 37.855469 74.683594 37.902344 C 74.0625 35.6875 72.234375 33.933594 69.886719 33.476562 L 63.253906 32.1875 C 61.421875 31.832031 59.546875 32.308594 58.109375 33.492188 C 56.671875 34.675781 55.847656 36.425781 55.847656 38.289062 L 55.847656 42.941406 C 53.339844 43.332031 51.210938 44.933594 50.019531 47.160156 C 49.226562 46.015625 48.089844 44.59375 46.589844 43.257812 C 42.332031 39.453125 37.214844 38.195312 31.800781 39.617188 C 27.476562 40.75 23.617188 45.445312 20.308594 51.574219 Z M 51.378906 51.25 C 51.378906 47.929688 53.917969 45.230469 57.039062 45.230469 C 60.160156 45.230469 62.699219 47.929688 62.699219 51.25 C 62.699219 54.570312 60.160156 57.269531 57.039062 57.269531 C 53.917969 57.269531 51.378906 54.570312 51.378906 51.25 Z M 58.230469 59.558594 C 62.101562 58.957031 65.078125 55.460938 65.078125 51.25 C 65.078125 47.039062 62.101562 43.542969 58.230469 42.941406 L 58.230469 38.289062 C 58.230469 37.140625 58.738281 36.0625 59.625 35.328125 C 60.511719 34.597656 61.667969 34.304688 62.796875 34.523438 L 69.433594 35.8125 C 71.230469 36.164062 72.535156 37.746094 72.535156 39.582031 L 72.535156 62.367188 C 72.535156 63.515625 72.027344 64.597656 71.140625 65.328125 C 70.253906 66.058594 69.097656 66.351562 67.96875 66.132812 L 61.332031 64.84375 C 59.535156 64.492188 58.230469 62.910156 58.230469 61.078125 Z M 2.382812 114.421875 L 2.382812 100.523438 C 2.382812 98.78125 3.042969 97.125 4.246094 95.859375 L 15.945312 83.554688 C 16.425781 83.855469 16.941406 84.117188 17.484375 84.328125 C 17.695312 84.410156 17.90625 84.480469 18.121094 84.546875 C 17.65625 84.980469 17.210938 85.421875 16.789062 85.878906 C 11.566406 91.546875 8.984375 107.238281 7.738281 119.402344 C 7.679688 119.945312 7.667969 120.492188 7.703125 121.03125 C 4.664062 120.363281 2.382812 117.644531 2.382812 114.421875 Z M 17.890625 128.28125 C 15.679688 128.28125 13.566406 127.339844 12.085938 125.699219 C 10.601562 124.054688 9.878906 121.847656 10.105469 119.644531 C 11.816406 102.957031 14.8125 91.539062 18.542969 87.492188 C 26.128906 79.261719 42.773438 74.664062 42.9375 74.617188 C 43.484375 74.46875 43.851562 73.953125 43.816406 73.390625 C 43.742188 72.339844 43.019531 63.054688 39.4375 60.328125 C 38.515625 59.625 37.441406 59.371094 36.332031 59.601562 C 34.449219 59.984375 31.503906 62.242188 27.6875 77.3125 C 27.605469 77.625 27.507812 77.929688 27.386719 78.226562 C 24.996094 79.480469 22.605469 80.929688 20.464844 82.570312 C 19.742188 82.523438 19.035156 82.375 18.351562 82.109375 C 14.957031 80.789062 13.128906 77.023438 14.183594 73.542969 C 19.816406 55.007812 26.457031 43.480469 32.40625 41.917969 C 42.636719 39.234375 48.074219 48.28125 49.070312 50.136719 C 49.023438 50.5 48.996094 50.871094 48.996094 51.25 C 48.996094 52.8125 49.40625 54.277344 50.121094 55.53125 C 48.914062 58.601562 48.296875 61.832031 48.296875 65.148438 C 48.296875 71.828125 50.835938 78.253906 55.449219 83.25 C 55.683594 83.503906 56.003906 83.632812 56.324219 83.632812 C 56.609375 83.632812 56.902344 83.527344 57.128906 83.316406 C 57.613281 82.871094 57.644531 82.117188 57.195312 81.636719 C 52.992188 77.082031 50.675781 71.226562 50.675781 65.148438 C 50.675781 62.589844 51.082031 60.089844 51.875 57.683594 C 52.984375 58.660156 54.347656 59.324219 55.847656 59.558594 L 55.847656 61.074219 C 55.847656 64.046875 57.964844 66.613281 60.878906 67.179688 L 67.511719 68.46875 C 67.910156 68.546875 68.308594 68.585938 68.707031 68.585938 C 70.136719 68.585938 71.527344 68.09375 72.65625 67.164062 C 74.09375 65.980469 74.917969 64.230469 74.917969 62.367188 L 74.917969 52.210938 L 81.964844 50.699219 C 82.605469 50.558594 83.015625 49.925781 82.878906 49.285156 C 82.738281 48.640625 82.105469 48.230469 81.464844 48.371094 L 74.917969 49.777344 L 74.917969 40.273438 C 75.542969 40.230469 76.175781 40.207031 76.804688 40.207031 C 80.546875 40.207031 84.148438 40.945312 87.515625 42.394531 C 86.675781 48.332031 88.289062 54.023438 92.453125 57.722656 C 95.347656 60.292969 99.050781 61.53125 102.988281 61.53125 C 108.84375 61.53125 115.207031 58.796875 120.175781 53.667969 C 123.398438 56.871094 134.542969 69.015625 129.976562 79.648438 C 126.027344 88.847656 106.234375 87.335938 97.910156 86.257812 C 95.128906 85.898438 93.03125 83.503906 93.03125 80.6875 C 93.03125 77.589844 95.550781 75.070312 98.648438 75.070312 L 117.441406 75.070312 C 118.097656 75.070312 118.632812 74.539062 118.632812 73.882812 C 118.632812 73.222656 118.097656 72.691406 117.441406 72.691406 L 114.1875 72.691406 L 114.1875 65.070312 C 114.1875 64.414062 113.652344 63.878906 112.996094 63.878906 C 112.339844 63.878906 111.804688 64.414062 111.804688 65.070312 L 111.804688 72.691406 L 98.648438 72.691406 C 94.238281 72.691406 90.648438 76.277344 90.648438 80.6875 C 90.648438 82.9375 91.59375 85 93.121094 86.464844 C 92.574219 88.3125 92.378906 91.039062 93.59375 93.585938 C 88.996094 94.910156 82.949219 96.328125 77.804688 96.4375 C 67.21875 96.664062 55.96875 92.65625 55.855469 92.617188 C 55.6875 92.554688 55.503906 92.535156 55.324219 92.554688 C 54.695312 92.621094 39.800781 94.277344 33.082031 99.140625 C 29.578125 101.679688 27.082031 109.148438 25.667969 121.335938 C 25.210938 125.296875 21.867188 128.28125 17.890625 128.28125 Z M 30.273438 76.804688 C 33.828125 63.210938 36.335938 62.03125 36.8125 61.933594 C 36.917969 61.910156 37.023438 61.898438 37.121094 61.898438 C 37.429688 61.898438 37.707031 62.003906 37.996094 62.222656 C 39.875 63.652344 40.996094 68.980469 41.359375 72.597656 C 39.46875 73.160156 35.074219 74.570312 30.273438 76.804688 Z M 147.617188 114.421875 C 147.617188 118.152344 144.582031 121.191406 140.851562 121.191406 L 28.085938 121.191406 C 29.390625 110.253906 31.65625 103.113281 34.480469 101.070312 C 40.226562 96.910156 53.296875 95.195312 55.316406 94.953125 C 57.15625 95.589844 67.625 99.046875 77.855469 98.820312 C 83.527344 98.695312 90.15625 97.085938 94.972656 95.664062 C 95.671875 96.460938 96.570312 97.199219 97.699219 97.847656 C 100.101562 99.21875 105.511719 100.035156 112.023438 100.035156 C 112.507812 100.035156 112.996094 100.03125 113.488281 100.023438 C 121.273438 99.878906 128.800781 98.628906 134.140625 96.585938 C 137.601562 95.265625 140.164062 93.632812 141.816406 91.714844 L 145.753906 95.859375 C 146.957031 97.125 147.617188 98.78125 147.617188 100.523438 Z M 147.617188 114.421875 " fill-opacity="1" fill-rule="nonzero"/></g></svg>